<svg width="88" height="44" viewBox="0 0 88 44" fill="none" xmlns="http://www.w3.org/2000/svg">
<path d="M39.5279 2.23607C40.4009 1.79954 40.8375 1.58127 41.2738 1.4231C43.0352 0.784663 44.9648 0.784663 46.7262 1.4231C47.1625 1.58127 47.5991 1.79954 48.4721 2.23607L70.1115 13.0557C73.161 14.5805 74.6858 15.3429 75.5083 16.0946C78.9792 19.2666 78.9792 24.7334 75.5083 27.9054C74.6858 28.6571 73.161 29.4195 70.1115 30.9443L48.4721 41.7639C47.5991 42.2005 47.1625 42.4187 46.7262 42.5769C44.9648 43.2153 43.0352 43.2153 41.2738 42.5769C40.8375 42.4187 40.4009 42.2005 39.5279 41.7639L17.8885 30.9443C14.839 29.4195 13.3142 28.6571 12.4917 27.9054C9.02083 24.7334 9.02083 19.2666 12.4917 16.0946C13.3142 15.3429 14.839 14.5805 17.8885 13.0557L39.5279 2.23607Z" fill="url(#paint0_linear_2_39)"/>
<path d="M31.038 21.332H36.538V23.246H31.038V28.064H37.748V30H28.486V14.82H37.616L37.33 16.756H31.038V21.332ZM40.0274 30V14.82H42.5794V30H40.0274ZM47.9474 14.82H50.7634L45.4614 21.728L51.1814 30H48.1234L42.6894 21.882L47.9474 14.82ZM62.5468 22.41C62.5468 24.8153 62.0481 26.7293 61.0508 28.152C60.0681 29.5747 58.6455 30.286 56.7828 30.286C54.9201 30.286 53.4901 29.5893 52.4928 28.196C51.5101 26.788 51.0188 24.8667 51.0188 22.432C51.0188 20.0267 51.5101 18.1053 52.4928 16.668C53.4901 15.2307 54.9201 14.512 56.7828 14.512C58.6455 14.512 60.0681 15.2233 61.0508 16.646C62.0481 18.054 62.5468 19.9753 62.5468 22.41ZM59.9288 22.41C59.9288 20.4153 59.6795 18.934 59.1808 17.966C58.6821 16.998 57.8828 16.514 56.7828 16.514C55.6828 16.514 54.8835 16.998 54.3848 17.966C53.8861 18.934 53.6368 20.4227 53.6368 22.432C53.6368 24.412 53.8861 25.886 54.3848 26.854C54.8981 27.822 55.6975 28.306 56.7828 28.306C57.8828 28.306 58.6821 27.822 59.1808 26.854C59.6795 25.886 59.9288 24.4047 59.9288 22.41Z" fill="#FCFCFC"/>
<defs>
<linearGradient id="paint0_linear_2_39" x1="-3.38782e-05" y1="3.4389e-05" x2="90.0762" y2="39.2332" gradientUnits="userSpaceOnUse">
<stop stop-color="#120A79"/>
<stop offset="0.9998" stop-color="#652C57"/>
<stop offset="0.9999" stop-color="#350000" stop-opacity="0.208333"/>
<stop offset="1" stop-opacity="0"/>
</linearGradient>
</defs>
</svg>
