<svg width="35" height="17" viewBox="0 0 35 17" fill="none" xmlns="http://www.w3.org/2000/svg">
<path d="M3.038 7.332H8.538V9.246H3.038V14.064H9.748V16H0.486V0.819999H9.616L9.33 2.756H3.038V7.332ZM12.0274 16V0.819999H14.5794V16H12.0274ZM19.9474 0.819999H22.7634L17.4614 7.728L23.1814 16H20.1234L14.6894 7.882L19.9474 0.819999ZM34.5468 8.41C34.5468 10.8153 34.0481 12.7293 33.0508 14.152C32.0681 15.5747 30.6455 16.286 28.7828 16.286C26.9201 16.286 25.4901 15.5893 24.4928 14.196C23.5101 12.788 23.0188 10.8667 23.0188 8.432C23.0188 6.02667 23.5101 4.10533 24.4928 2.668C25.4901 1.23067 26.9201 0.511999 28.7828 0.511999C30.6455 0.511999 32.0681 1.22333 33.0508 2.646C34.0481 4.054 34.5468 5.97533 34.5468 8.41ZM31.9288 8.41C31.9288 6.41533 31.6795 4.934 31.1808 3.966C30.6821 2.998 29.8828 2.514 28.7828 2.514C27.6828 2.514 26.8835 2.998 26.3848 3.966C25.8861 4.934 25.6368 6.42267 25.6368 8.432C25.6368 10.412 25.8861 11.886 26.3848 12.854C26.8981 13.822 27.6975 14.306 28.7828 14.306C29.8828 14.306 30.6821 13.822 31.1808 12.854C31.6795 11.886 31.9288 10.4047 31.9288 8.41Z" fill="#FCFCFC"/>
</svg>
